{
  "accessors": [
    {
      "bufferView": 2,
      "componentType": 5126,
      "count": 65534,
      "max": [
        8.9968595504760742,
        9.6598196029663086,
        6.6241898536682129
      ],
      "min": [
        -7.8418397903442383,
        -0.049288000911474228,
        -9.3252201080322266
      ],
      "type": "VEC3"
    },
    {
      "bufferView": 2,
      "byteOffset": 786408,
      "componentType": 5126,
      "count": 65534,
      "max": [
        0.99990290403366089,
        0.99998754262924194,
        0.99999856948852539
      ],
      "min": [
        -0.99999845027923584,
        -0.99999147653579712,
        -0.99989235401153564
      ],
      "type": "VEC3"
    },
    {
      "bufferView": 1,
      "componentType": 5126,
      "count": 65534,
      "max": [
        0.99658399820327759,
        0.99704498052597046
      ],
      "min": [
        0.0004825590003747493,
        0.0004825590003747493
      ],
      "type": "VEC2"
    },
    {
      "bufferView": 0,
      "componentType": 5125,
      "count": 149271,
      "max": [
        65533
      ],
      "min": [
        0
      ],
      "type": "SCALAR"
    },
    {
      "bufferView": 2,
      "byteOffset": 1572816,
      "componentType": 5126,
      "count": 46312,
      "max": [
        5.7369198799133301,
        1.3970099687576294,
        4.0330500602722168
      ],
      "min": [
        -4.6919999122619629,
        -0.20907199382781982,
        -6.2969198226928711
      ],
      "type": "VEC3"
    },
    {
      "bufferView": 2,
      "byteOffset": 2128560,
      "componentType": 5126,
      "count": 46312,
      "max": [
        0.99999958276748657,
        1,
        0.99999898672103882
      ],
      "min": [
        -0.99999845027923584,
        -1,
        -0.9999997615814209
      ],
      "type": "VEC3"
    },
    {
      "bufferView": 1,
      "byteOffset": 524272,
      "componentType": 5126,
      "count": 46312,
      "max": [
        0.99645799398422241,
        0.99749702215194702
      ],
      "min": [
        0.0004825590003747493,
        0.0004825590003747493
      ],
      "type": "VEC2"
    },
    {
      "bufferView": 0,
      "byteOffset": 597084,
      "componentType": 5125,
      "count": 87126,
      "max": [
        46311
      ],
      "min": [
        0
      ],
      "type": "SCALAR"
    },
    {
      "bufferView": 2,
      "byteOffset": 2684304,
      "componentType": 5126,
      "count": 16915,
      "max": [
        5.9260001182556152,
        7.697080135345459,
        4.0204100608825684
      ],
      "min": [
        -4.6892499923706055,
        -0.038592800498008728,
        -9.9450902938842773
      ],
      "type": "VEC3"
    },
    {
      "bufferView": 2,
      "byteOffset": 2887284,
      "componentType": 5126,
      "count": 16915,
      "max": [
        1,
        1,
        1
      ],
      "min": [
        -1,
        -1,
        -1
      ],
      "type": "VEC3"
    },
    {
      "bufferView": 1,
      "byteOffset": 894768,
      "componentType": 5126,
      "count": 16915,
      "max": [
        0.99579697847366333,
        0.99234300851821899
      ],
      "min": [
        0,
        0
      ],
      "type": "VEC2"
    },
    {
      "bufferView": 0,
      "byteOffset": 945588,
      "componentType": 5125,
      "count": 31035,
      "max": [
        16914
      ],
      "min": [
        0
      ],
      "type": "SCALAR"
    },
    {
      "bufferView": 2,
      "byteOffset": 3090264,
      "componentType": 5126,
      "count": 30600,
      "max": [
        8.0469417572021484,
        9.1630172729492188,
        10.28748893737793
      ],
      "min": [
        -8.4663972854614258,
        -7.6143999099731445,
        3.8518130779266357
      ],
      "type": "VEC3"
    },
    {
      "bufferView": 2,
      "byteOffset": 3457464,
      "componentType": 5126,
      "count": 30600,
      "max": [
        0.99911808967590332,
        0.99880224466323853,
        0.99998408555984497
      ],
      "min": [
        -0.99878263473510742,
        -0.99998486042022705,
        -0.99998104572296143
      ],
      "type": "VEC3"
    },
    {
      "bufferView": 1,
      "byteOffset": 1030088,
      "componentType": 5126,
      "count": 30600,
      "max": [
        0.99989801645278931,
        1
      ],
      "min": [
        0,
        0
      ],
      "type": "VEC2"
    },
    {
      "bufferView": 0,
      "byteOffset": 1069728,
      "componentType": 5125,
      "count": 30600,
      "max": [
        30599
      ],
      "min": [
        0
      ],
      "type": "SCALAR"
    },
    {
      "bufferView": 2,
      "byteOffset": 3824664,
      "componentType": 5126,
      "count": 68,
      "max": [
        9.543421745300293,
        11.573640823364258,
        7.7029480934143066
      ],
      "min": [
        -4.6887736320495605,
        -4.0198774337768555,
        -2.4055864810943604
      ],
      "type": "VEC3"
    },
    {
      "bufferView": 2,
      "byteOffset": 3825480,
      "componentType": 5126,
      "count": 68,
      "max": [
        1,
        1,
        1
      ],
      "min": [
        -1,
        -1,
        -1
      ],
      "type": "VEC3"
    },
    {
      "bufferView": 1,
      "byteOffset": 1274888,
      "componentType": 5126,
      "count": 68,
      "max": [
        0.99726247787475586,
        0.96554410457611084
      ],
      "min": [
        0.0027370266616344452,
        0.0027315914630889893
      ],
      "type": "VEC2"
    },
    {
      "bufferView": 0,
      "byteOffset": 1192128,
      "componentType": 5125,
      "count": 84,
      "max": [
        67
      ],
      "min": [
        0
      ],
      "type": "SCALAR"
    },
    {
      "bufferView": 2,
      "byteOffset": 3826296,
      "componentType": 5126,
      "count": 208,
      "max": [
        1.7438894510269165,
        1.8469853401184082,
        0.055226899683475494
      ],
      "min": [
        -1.7153220176696777,
        -1.7153220176696777,
        -0.0058755413629114628
      ],
      "type": "VEC3"
    },
    {
      "bufferView": 2,
      "byteOffset": 3828792,
      "componentType": 5126,
      "count": 208,
      "max": [
        0.96821808815002441,
        0.9999929666519165,
        1
      ],
      "min": [
        -0.19962356984615326,
        -0.072147086262702942,
        -0.24400010704994202
      ],
      "type": "VEC3"
    },
    {
      "bufferView": 3,
      "componentType": 5126,
      "count": 208,
      "max": [
        0.99391692876815796,
        1,
        0.96953219175338745,
        1
      ],
      "min": [
        -0.99643039703369141,
        -0.055064238607883453,
        -0.99997085332870483,
        -1
      ],
      "type": "VEC4"
    },
    {
      "bufferView": 1,
      "byteOffset": 1275432,
      "componentType": 5126,
      "count": 208,
      "max": [
        1,
        0.99234974384307861
      ],
      "min": [
        0,
        0
      ],
      "type": "VEC2"
    },
    {
      "bufferView": 0,
      "byteOffset": 1192464,
      "componentType": 5125,
      "count": 837,
      "max": [
        207
      ],
      "min": [
        0
      ],
      "type": "SCALAR"
    }
  ],
  "asset": {
    "extras": {
      "author": "Shahriar Shahrabi (https://sketchfab.com/shahriyarshahrabi)",
      "license": "CC-BY-4.0 (http://creativecommons.org/licenses/by/4.0/)",
      "source": "https://sketchfab.com/3d-models/an-afternoon-in-a-persian-garden-b13afbaf1aae4f6aad03aaa081ce471e",
      "title": "An afternoon in a Persian Garden"
    },
    "generator": "Sketchfab-10.1.0",
    "version": "2.0"
  },
  "bufferViews": [
    {
      "buffer": 0,
      "byteLength": 1195812,
      "byteOffset": 0,
      "name": "floatBufferViews",
      "target": 34963
    },
    {
      "buffer": 0,
      "byteLength": 1277096,
      "byteOffset": 1195812,
      "byteStride": 8,
      "name": "floatBufferViews",
      "target": 34962
    },
    {
      "buffer": 0,
      "byteLength": 3831288,
      "byteOffset": 2472908,
      "byteStride": 12,
      "name": "floatBufferViews",
      "target": 34962
    },
    {
      "buffer": 0,
      "byteLength": 3328,
      "byteOffset": 6304196,
      "byteStride": 16,
      "name": "floatBufferViews",
      "target": 34962
    }
  ],
  "buffers": [
    {
      "byteLength": 6307524,
      "uri": "scene.bin"
    }
  ],
  "images": [
    {
      "uri": "textures/material0.001_emissive.jpeg"
    },
    {
      "uri": "textures/material0.002_emissive.jpeg"
    },
    {
      "uri": "textures/Material.005_baseColor.png"
    },
    {
      "uri": "textures/Material.005_emissive.jpeg"
    },
    {
      "uri": "textures/Material.006_emissive.jpeg"
    },
    {
      "uri": "textures/Material.007_normal.png"
    }
  ],
  "materials": [
    {
      "doubleSided": true,
      "emissiveFactor": [
        1,
        1,
        1
      ],
      "emissiveTexture": {
        "index": 0,
        "texCoord": 0
      },
      "name": "material0.001",
      "pbrMetallicRoughness": {
        "baseColorFactor": [
          0,
          0,
          0,
          1
        ],
        "metallicFactor": 0,
        "roughnessFactor": 1
      }
    },
    {
      "doubleSided": true,
      "emissiveFactor": [
        1,
        1,
        1
      ],
      "emissiveTexture": {
        "index": 1,
        "texCoord": 0
      },
      "name": "material0.002",
      "pbrMetallicRoughness": {
        "baseColorFactor": [
          0,
          0,
          0,
          1
        ],
        "metallicFactor": 0,
        "roughnessFactor": 1
      }
    },
    {
      "alphaCutoff": 0.024636925509743939,
      "alphaMode": "MASK",
      "doubleSided": true,
      "emissiveFactor": [
        1,
        1,
        1
      ],
      "emissiveTexture": {
        "index": 3,
        "texCoord": 0
      },
      "name": "Material.005",
      "pbrMetallicRoughness": {
        "baseColorFactor": [
          0,
          0,
          0,
          1
        ],
        "baseColorTexture": {
          "index": 2,
          "texCoord": 0
        },
        "metallicFactor": 0,
        "roughnessFactor": 0
      }
    },
    {
      "doubleSided": false,
      "emissiveFactor": [
        1,
        1,
        1
      ],
      "emissiveTexture": {
        "index": 4,
        "texCoord": 0
      },
      "name": "Material.006",
      "pbrMetallicRoughness": {
        "baseColorFactor": [
          0,
          0,
          0,
          1
        ],
        "metallicFactor": 0,
        "roughnessFactor": 0.80404082060000004
      }
    },
    {
      "alphaMode": "BLEND",
      "doubleSided": true,
      "emissiveFactor": [
        0,
        0,
        0
      ],
      "name": "Material.007",
      "normalTexture": {
        "index": 5,
        "scale": 0.26331567176639475,
        "texCoord": 0
      },
      "pbrMetallicRoughness": {
        "baseColorFactor": [
          0.80000000000000004,
          0.80000000000000004,
          0.80000000000000004,
          0
        ],
        "metallicFactor": 0,
        "roughnessFactor": 0
      }
    }
  ],
  "meshes": [
    {
      "name": "object0.001_material0.001_0",
      "primitives": [
        {
          "attributes": {
            "NORMAL": 1,
            "POSITION": 0,
            "TEXCOORD_0": 2
          },
          "indices": 3,
          "material": 0,
          "mode": 4
        }
      ]
    },
    {
      "name": "object0.001_material0.001_0",
      "primitives": [
        {
          "attributes": {
            "NORMAL": 5,
            "POSITION": 4,
            "TEXCOORD_0": 6
          },
          "indices": 7,
          "material": 0,
          "mode": 4
        }
      ]
    },
    {
      "name": "object0.002_material0.002_0",
      "primitives": [
        {
          "attributes": {
            "NORMAL": 9,
            "POSITION": 8,
            "TEXCOORD_0": 10
          },
          "indices": 11,
          "material": 1,
          "mode": 4
        }
      ]
    },
    {
      "name": "polySurface1.003_Material.005_0",
      "primitives": [
        {
          "attributes": {
            "NORMAL": 13,
            "POSITION": 12,
            "TEXCOORD_0": 14
          },
          "indices": 15,
          "material": 2,
          "mode": 4
        }
      ]
    },
    {
      "name": "Walls.001_Material.006_0",
      "primitives": [
        {
          "attributes": {
            "NORMAL": 17,
            "POSITION": 16,
            "TEXCOORD_0": 18
          },
          "indices": 19,
          "material": 3,
          "mode": 4
        }
      ]
    },
    {
      "name": "Plane.003_Material.007_0",
      "primitives": [
        {
          "attributes": {
            "NORMAL": 21,
            "POSITION": 20,
            "TANGENT": 22,
            "TEXCOORD_0": 23
          },
          "indices": 24,
          "material": 4,
          "mode": 4
        }
      ]
    }
  ],
  "nodes": [
    {
      "children": [
        1
      ],
      "name": "RootNode (gltf orientation matrix)",
      "rotation": [
        -0.70710678118654746,
        -0,
        -0,
        0.70710678118654757
      ]
    },
    {
      "children": [
        2
      ],
      "name": "RootNode (model correction matrix)"
    },
    {
      "children": [
        3
      ],
      "matrix": [
        1,
        0,
        0,
        0,
        0,
        0,
        1,
        0,
        0,
        -1,
        0,
        0,
        0,
        0,
        0,
        1
      ],
      "name": "16b624f104fa46ae815f7ff266cd37d8.fbx"
    },
    {
      "children": [
        4,
        7,
        9,
        11,
        13
      ],
      "name": "RootNode"
    },
    {
      "children": [
        5,
        6
      ],
      "matrix": [
        100,
        0,
        0,
        0,
        0,
        99.999999999998664,
        1.6292067073209114e-05,
        0,
        0,
        -1.6292067073209114e-05,
        99.999999999998664,
        0,
        0,
        0,
        0,
        1
      ],
      "name": "object0.001"
    },
    {
      "mesh": 0,
      "name": "object0.001_material0.001_0"
    },
    {
      "mesh": 1,
      "name": "object0.001_material0.001_0"
    },
    {
      "children": [
        8
      ],
      "matrix": [
        100,
        0,
        0,
        0,
        0,
        99.999999999998664,
        1.6292067073209114e-05,
        0,
        0,
        -1.6292067073209114e-05,
        99.999999999998664,
        0,
        0,
        0,
        0,
        1
      ],
      "name": "object0.002"
    },
    {
      "mesh": 2,
      "name": "object0.002_material0.002_0"
    },
    {
      "children": [
        10
      ],
      "matrix": [
        100,
        0,
        0,
        0,
        0,
        -1.6292067939183141e-05,
        -99.999999999998678,
        0,
        0,
        99.999999999998678,
        -1.6292067939183141e-05,
        0,
        0,
        0,
        0,
        1
      ],
      "name": "polySurface1.003"
    },
    {
      "mesh": 3,
      "name": "polySurface1.003_Material.005_0"
    },
    {
      "children": [
        12
      ],
      "matrix": [
        100,
        0,
        0,
        0,
        0,
        -1.6292067939183141e-05,
        -99.999999999998678,
        0,
        0,
        99.999999999998678,
        -1.6292067939183141e-05,
        0,
        0,
        0,
        0,
        1
      ],
      "name": "Walls.001"
    },
    {
      "mesh": 4,
      "name": "Walls.001_Material.006_0"
    },
    {
      "children": [
        14
      ],
      "matrix": [
        100,
        0,
        0,
        0,
        0,
        -1.6292067939183141e-05,
        -99.999999999998678,
        0,
        0,
        99.999999999998678,
        -1.6292067939183141e-05,
        0,
        0,
        15.501700401306152,
        0,
        1
      ],
      "name": "Plane.003"
    },
    {
      "mesh": 5,
      "name": "Plane.003_Material.007_0"
    }
  ],
  "samplers": [
    {
      "magFilter": 9729,
      "minFilter": 9987,
      "wrapS": 10497,
      "wrapT": 10497
    }
  ],
  "scene": 0,
  "scenes": [
    {
      "name": "OSG_Scene",
      "nodes": [
        0
      ]
    }
  ],
  "textures": [
    {
      "sampler": 0,
      "source": 0
    },
    {
      "sampler": 0,
      "source": 1
    },
    {
      "sampler": 0,
      "source": 2
    },
    {
      "sampler": 0,
      "source": 3
    },
    {
      "sampler": 0,
      "source": 4
    },
    {
      "sampler": 0,
      "source": 5
    }
  ]
}

